<?xml version="1.0" encoding="utf-8"?>
<!-- Generator: Adobe Illustrator 21.0.0, SVG Export Plug-In . SVG Version: 6.00 Build 0)  -->
<svg version="1.1" id="Layer_1" xmlns="http://www.w3.org/2000/svg" xmlns:xlink="http://www.w3.org/1999/xlink" x="0px" y="0px"
	 viewBox="0 0 387.3 175.3" style="enable-background:new 0 0 387.3 175.3;" xml:space="preserve">
<style type="text/css">
	.st0{fill:#00FFF4;}
</style>
<path class="st0" d="M213.9,103.2v4.9h-2c-1.9,0-3.5-0.7-4.9-2l-8.9-8.9l4.9-4.9L213.9,103.2z M149.6,79.3c-1.4-1.4-2-3-2-4.9h14.1
	v7h-7.2C152.6,81.4,150.9,80.7,149.6,79.3z M238.2,93.3c-1.4,1.4-3,2-5,2h-18.3c0-1.9,0.7-3.6,2-5c1.4-1.4,3-2.1,5-2.1h11.3v-7l0,0
	h-21.3l-24.7,24.7c-1.4,1.3-3,2-4.9,2h-2v-5L192.2,91l-9.9-9.9h-12v26.8c-1.9,0-3.6-0.7-4.9-2c-1.4-1.4-2-3-2-4.9V81.4
	c0-1.9,0.7-3.6,2-4.9c1.4-1.4,3-2,4.9-2h10l0,0h2c1.9,0,3.5,0.7,4.9,2l9.9,9.9l9.9-9.9c1.4-1.4,3.1-2,4.9-2h1c0.2,0,0.4,0,0.6,0
	h19.8c1.9,0,3.6,0.7,5,2c1.4,1.4,2,3,2,5v7C240.3,90.3,239.6,91.9,238.2,93.3z M193.7,2.2c-47.2,0-85.5,38.3-85.5,85.5
	s38.3,85.5,85.5,85.5s85.5-38.3,85.5-85.5S241,2.2,193.7,2.2z M385,52.7c-0.7,0-1.4-0.4-1.8-0.9h-30.9L334.7,70h21
	c0.2-1.7,1.6-3.1,3.4-3.1c1.9,0,3.4,1.5,3.4,3.4s-1.5,3.4-3.4,3.4c-1.4,0-2.6-0.9-3.2-2.1H320l6.7,10.1h17.8
	c0.4-0.8,1.2-1.3,2.1-1.3c1.3,0,2.4,1.1,2.4,2.4s-1.1,2.4-2.4,2.4c-1.2,0-2.2-0.9-2.4-2h-17.8l-7.8-11.7H301l-19.7,13.6
	c0,0.9,0,1.7,0,2.6c0,14.2-3.4,27.6-9.3,39.4l14.4,19.3h25.7l11.9-11.5h23.7c0-0.1,0-0.2,0-0.3c0-1.4,1.2-2.6,2.6-2.6
	s2.6,1.2,2.6,2.6c0,1.4-1.2,2.6-2.6,2.6c-1.1,0-2-0.7-2.4-1.6h-23.1l-10.7,10.9h10c0.4-1.4,1.6-2.5,3.2-2.5c1.8,0,3.3,1.5,3.3,3.3
	s-1.5,3.3-3.3,3.3c-1.7,0-3.1-1.3-3.2-2.9h-38.5l-14.2-19.3c-14.6,27.9-43.9,46.9-77.6,46.9c-31.6,0-59.2-16.7-74.6-41.7l-31.1,14.2
	H38.9c-0.4,1.3-1.6,2.2-3,2.2c-1.8,0-3.2-1.4-3.2-3.2s1.4-3.2,3.2-3.2c1.6,0,2.9,1.1,3.1,2.6h14.7l-12.2-10.3H15.8
	c-0.3,1-1.2,1.7-2.3,1.7c-1.3,0-2.4-1.1-2.4-2.4c0-1.3,1.1-2.4,2.4-2.4c1.1,0,2.1,0.8,2.3,1.9h26.1l13.8,11.8H87l31.2-14.2
	c-7.7-13-12.1-28.2-12.1-44.4c0-1,0-2,0.1-3.1L85.3,102H46.8c-0.4,1.3-1.7,2.3-3.2,2.3c-1.8,0-3.3-1.5-3.3-3.3s1.5-3.3,3.3-3.3
	c1.6,0,3,1.2,3.3,2.8H59l-20.4-17L27,92.9h-8.5c-0.2,1-1.1,1.7-2.2,1.7c-1.2,0-2.2-1-2.2-2.2s1-2.2,2.2-2.2c1,0,1.9,0.7,2.2,1.7h8
	l10.9-9.2l-13-11h-19c0,1.5-1.2,2.6-2.7,2.6S0,73.1,0,71.6s1.2-2.7,2.7-2.7c0.9,0,1.8,0.5,2.2,1.2h20.4l36.6,30.4h22.6l21.9-18
	c0.7-11.8,3.8-23,8.7-33.2L96.4,26H80.2L69.7,38.1H43.8c-0.3,1-1.2,1.7-2.2,1.7c-1.3,0-2.3-1-2.3-2.3s1-2.3,2.3-2.3
	c1.2,0,2.2,1,2.3,2.2H69l9.4-11.2H27.8c-0.3,1.5-1.6,2.6-3.2,2.6c-1.8,0-3.3-1.5-3.3-3.3s1.5-3.3,3.3-3.3c1.7,0,3.1,1.3,3.2,2.9
	h69.6l18.3,23c14.5-28.3,44-47.8,78-47.8c35.3,0,65.7,20.9,79.5,50.9l18.9-26h54.1c0.1-1.7,1.5-3.1,3.3-3.1s3.3,1.5,3.3,3.3
	s-1.5,3.3-3.3,3.3c-1.5,0-2.8-1-3.2-2.5h-40.8l5.9,5.8l15.5,0.1c0.2-1.1,1.2-2,2.3-2c1.3,0,2.4,1.1,2.4,2.4c0,1.3-1.1,2.4-2.4,2.4
	c-1.2,0-2.2-0.9-2.3-2h-15.8l-7.1-6.8h-11.2l-19,25.9c4.2,9.5,6.8,19.9,7.4,30.8l19.4-13h32.5L352,50.7h30.9c0-0.1,0-0.3,0-0.4
	c0-1.2,1-2.2,2.2-2.2s2.2,1,2.2,2.2C387.3,51.7,386.3,52.7,385,52.7z M267.1,83.7c-6.5-0.3-17.9-1.4-17.9-1.4s-3,0.1-4.3-3.5
	c0-0.1,0-0.1-0.1-0.2c-1.2-3.8-4.2-12.9-4.2-12.9s-0.1-0.3-0.2-0.7c-0.8-3.4,1.5-4.9,1.5-4.9s8.1-7.2,13.3-11.3
	c0.1,0,0.1-0.1,0.1-0.1s2.4-2.4,5-1.7c2.2,0.6,3.4,2.8,3.4,2.8c3.8,6.3,6,12.5,7.3,17.4c0.8,3.2,1.5,6.8,1.8,10.6
	C272.8,77.8,273.6,83.9,267.1,83.7z M250.5,41.3c-5.4,3.6-15.3,9.4-15.3,9.4s-2.4,1.9-5.5-0.3c-0.1,0-0.1-0.1-0.2-0.1
	c-3.2-2.4-11-8-11-8s-0.3-0.1-0.6-0.5c-2.7-2.3-1.7-4.9-1.7-4.9s2.4-10.6,4.1-16.9c0-0.1,0-0.1,0-0.1s0.6-3.3,3.1-4.3
	c2.1-0.8,4.3,0.3,4.3,0.3c6.8,2.9,12.2,6.5,16.1,9.8c2.5,2.1,5.2,4.6,7.7,7.5C251.7,33.3,255.9,37.7,250.5,41.3z M212.3,16.8
	c-2.3,6.1-6.8,16.6-6.8,16.6s-0.8,2.9-4.7,3c-0.1,0-0.1,0-0.2,0c-4,0-13.5,0-13.5,0s-0.3,0-0.8,0c-3.5-0.2-4.2-2.9-4.2-2.9
	s-4.3-9.9-6.6-16.1c0-0.1,0-0.1,0-0.1s-1.5-3,0-5.3c1.2-1.9,3.7-2.3,3.7-2.3c7.2-1.7,13.7-1.9,18.8-1.5c3.3,0.2,6.9,0.7,10.7,1.6
	C208.5,9.7,214.5,10.8,212.3,16.8z M169.1,42.1c-0.1,0-0.1,0.1-0.2,0.1c-3.2,2.3-11,8-11,8s-0.2,0.2-0.6,0.4c-3,1.9-5.2,0.1-5.2,0.1
	s-9.3-5.5-14.8-9.1c-0.1,0-0.1-0.1-0.1-0.1s-3-1.6-3.1-4.3c-0.1-2.2,1.6-4,1.6-4c4.8-5.6,10-9.5,14.3-12.3c2.8-1.8,6-3.5,9.5-5
	c0,0,5.5-2.7,7.3,3.6c1.7,6.2,4.2,17.4,4.2,17.4S172.2,39.8,169.1,42.1z M146.9,65.2c0,0.1,0,0.1-0.1,0.2
	c-1.2,3.8-4.2,12.9-4.2,12.9s-0.1,0.3-0.3,0.7c-1.3,3.2-4.1,3.1-4.1,3.1s-10.8,1-17.3,1.3c-0.1,0-0.1,0-0.1,0s-3.3,0.5-5-1.6
	c-1.4-1.7-1.1-4.2-1.1-4.2c0.6-7.4,2.5-13.6,4.3-18.3c1.2-3.1,2.8-6.3,4.8-9.6c0,0,2.9-5.4,8-1.4c5.1,4,13.7,11.6,13.7,11.6
	S148,61.6,146.9,65.2z M145.5,115.7c0,0-8.1,7.1-13.2,11.2c-0.1,0-0.1,0.1-0.1,0.1s-2.4,2.4-5,1.6c-2.2-0.6-3.4-2.7-3.4-2.7
	c-3.8-6.3-6-12.4-7.2-17.3c-0.8-3.2-1.5-6.7-1.8-10.6c0,0-0.8-6.1,5.6-5.8c6.5,0.3,17.9,1.4,17.9,1.4s3-0.1,4.2,3.5
	c0,0.1,0,0.1,0.1,0.2c1.2,3.8,4.2,12.9,4.2,12.9s0.1,0.3,0.2,0.7C147.8,114.2,145.5,115.7,145.5,115.7z M171,138.7
	c0,0-2.4,10.5-4.1,16.8c0,0.1,0,0.1,0,0.1s-0.6,3.3-3.1,4.3c-2.1,0.8-4.3-0.3-4.3-0.3c-6.8-2.9-12.1-6.5-16-9.8
	c-2.5-2.1-5.2-4.6-7.7-7.5c0,0-4.2-4.4,1.1-8c5.4-3.6,15.2-9.4,15.2-9.4s2.3-1.9,5.5,0.3c0.1,0,0.1,0.1,0.2,0.1
	c3.2,2.3,10.9,7.9,10.9,7.9s0.3,0.1,0.6,0.5C172,136.1,171,138.7,171,138.7z M211.8,163.6c-1.2,1.9-3.6,2.3-3.6,2.3
	c-7.2,1.7-13.6,1.9-18.7,1.5c-3.3-0.2-6.9-0.7-10.6-1.5c0,0-6-1.1-3.8-7.2c2.3-6.1,6.8-16.5,6.8-16.5s0.8-2.9,4.6-2.9
	c0.1,0,0.1,0,0.2,0c4,0,13.5,0,13.5,0s0.3,0,0.7,0c3.5,0.2,4.2,2.9,4.2,2.9s4.3,9.9,6.6,16c0,0.1,0,0.1,0,0.1
	S213.3,161.4,211.8,163.6z M251.2,142.5c-4.8,5.6-9.9,9.5-14.2,12.2c-2.8,1.8-5.9,3.5-9.5,5c0,0-5.5,2.7-7.3-3.6
	c-1.7-6.2-4.2-17.4-4.2-17.4s-1.1-2.8,2-5.1c0.1,0,0.1-0.1,0.2-0.1c3.2-2.3,10.9-7.9,10.9-7.9s0.2-0.2,0.6-0.4
	c3-1.8,5.1-0.1,5.1-0.1s9.3,5.5,14.7,9.1c0.1,0,0.1,0.1,0.1,0.1s3,1.6,3.1,4.2C252.9,140.7,251.2,142.5,251.2,142.5z M272.2,98.2
	c-0.6,7.3-2.4,13.5-4.3,18.2c-1.2,3.1-2.7,6.3-4.7,9.6c0,0-2.9,5.4-8,1.4s-13.6-11.6-13.6-11.6s-2.5-1.7-1.4-5.3
	c0-0.1,0-0.1,0.1-0.2c1.2-3.8,4.2-12.8,4.2-12.8s0.1-0.3,0.3-0.7c1.3-3.2,4.1-3.1,4.1-3.1s10.7-1,17.2-1.3c0.1,0,0.1,0,0.1,0
	s3.3-0.5,5,1.6C272.6,95.7,272.2,98.2,272.2,98.2z"/>
</svg>
