<?xml version="1.0" encoding="utf-8"?>
<!-- Generator: Adobe Illustrator 23.0.0, SVG Export Plug-In . SVG Version: 6.00 Build 0)  -->
<svg version="1.1" id="Layer_1" xmlns="http://www.w3.org/2000/svg" xmlns:xlink="http://www.w3.org/1999/xlink" x="0px" y="0px"
	 viewBox="0 0 511 463" style="enable-background:new 0 0 511 463;" xml:space="preserve">
<style type="text/css">
	.st0{fill:#00FFF4;}
</style>
<path class="st0" d="M494,136.4c-2.9,0.3-5.3,2.9-5.3,5.8c0,0.2,0,0.7,0,1l-69.3,6.3l-37.7,44l-58,2.6l-31.1,26.1
	c-0.9-20.7-4.9-40.3-11.2-57.7l29.5-53.1l18.5-2.8l12.2,11.9l28.4-3.8c0.2,2.3,2.1,3.9,4.3,3.6c2.5-0.3,4.5-2.9,4.5-5.7
	c0-2.8-2.1-4.8-4.5-4.4c-2.1,0.3-3.9,2.4-4.3,4.8l-27.9,3.6l-10.1-10.2l75.7-11.4c0.8,3.2,3.5,5,6.5,4.5c3.7-0.5,6.8-4.3,6.8-8.3
	s-3.1-6.8-6.8-6.2c-3.7,0.6-6.5,4.1-6.7,7.9l-97.7,15L280.5,163c-20-53-60.7-82.5-102.7-73.5c-35.9,7.7-64.1,42.4-77.1,85.2
	l-15.6-30.6l-52.3,8c-0.1-2-1-3.5-2.2-3.3c-1.2,0.2-2.2,2.2-2.2,4.5s1,4,2.2,3.8c1.1-0.2,2-1.7,2.2-3.6l37-5.6l-7.3,16.1l-18.5,2.3
	c-0.1-1.5-0.8-2.8-1.6-2.6c-0.9,0.1-1.6,1.5-1.6,3.2s0.7,2.9,1.6,2.8c0.7-0.1,1.3-1.1,1.6-2.4l19.1-2.3l8.1-17.5l13.1-2l15.9,31
	c-4.2,14.9-6.9,31-7.5,47.7l-18,24.9l-17.5-0.5l-26.1-39.3l-13.5,0.6c-0.3-0.9-0.8-1.4-1.4-1.4c-1,0-1.7,1.5-1.7,3.4
	c0,1.8,0.8,3.3,1.7,3.2c1,0,1.7-1.4,1.7-3.3l12.5-0.5l8.9,13.8l-7.5,11.7l-5.4-0.1c-0.2-1.3-0.8-2.1-1.5-2.1c-0.8,0-1.5,1.2-1.5,2.7
	s0.7,2.8,1.5,2.8c0.7,0,1.3-0.9,1.5-2.1l5.7,0.1l8-12l14.7,22.3l-8.8-0.3c-0.2-2.1-1.2-3.7-2.4-3.7c-1.3,0-2.3,1.9-2.3,4.2
	s1.1,4.3,2.3,4.4c1.1,0,2-1.2,2.3-2.9l29.2,1l17.2-23.7c-0.1,1.6-0.1,3-0.1,4.4c0,22.9,3.8,44.7,10.5,64l-26.2,16.7l-24-3.5
	l-10-16.7l-17.9-2.1c-0.1-1.4-0.8-2.5-1.5-2.5c-0.9-0.1-1.6,1.2-1.6,2.8s0.7,3.1,1.6,3.2c0.7,0.1,1.3-0.7,1.5-1.9l17.6,2.1l8.8,14.6
	l-10.5-1.5c-0.1-2-1.1-3.5-2.2-3.6c-1.3-0.2-2.2,1.5-2.2,3.8s1,4.2,2.2,4.4c1,0.1,1.8-0.9,2.1-2.5l37,5.4l26.2-16.6
	c13.9,38.5,40.5,68.9,74.1,76.1c40,8.6,78.8-17.6,99.9-66.3l21.6,39.3l65.3,9.6c0.2,3.4,2.8,6.5,5.9,7c3.4,0.5,6.2-2.2,6.2-6
	s-2.8-7.4-6.2-7.8c-3-0.4-5.2,1.6-5.9,4.4l-18-2.6l19.3-20l44.8,5.3c0.8,2.1,2.7,3.8,4.9,4.1c2.9,0.4,5.4-2,5.4-5.1
	c0-3.1-2.5-6-5.4-6.4c-2.9-0.3-5.3,2.1-5.3,5.1c0,0.2,0,0.4,0,0.7l-45.9-5.3l-21.3,20.9l-42.6-6.1l-22-39.3
	c8.9-21.5,14.1-46.7,14.1-73.7c0-1.7,0-3.2,0-5l31.6-27.2l30.4-1.2l14.2,23.9l34.4-0.4c0.4,2.4,2.4,4.3,4.8,4.3
	c2.6,0,4.9-2.5,4.9-5.3s-2.3-5.2-4.9-5.2c-1.8,0-3.4,1.2-4.2,2.9l-34.4,0.5l-12.3-20.7l70.2-2.8c1.3,2.6,3.8,4.6,6.8,4.5
	c4.1-0.1,7.4-3.7,7.4-8s-3.3-7.6-7.4-7.3c-3.9,0.2-6.8,3.5-7.3,7.3l-42.4,1.9l35.3-41.9l69.4-6.1c1,1.1,2.7,1.9,4.4,1.8
	c3.2-0.3,5.6-2.9,5.6-6.3C499.4,138.3,496.9,136.1,494,136.4z M177.9,370.4c-48.9-10.2-83.5-71.9-83.5-138.8
	c0-67,34.7-128.6,83.5-138.9c57.5-12.1,111.7,49.2,111.7,138.8S235.2,382.4,177.9,370.4z"/>
<path class="st0" d="M182.8,247.1l10.3,15c1.6,2.2,3.5,3.5,5.8,3.6l2.4,0.1v-8.2l-12.8-18.5L182.8,247.1z"/>
<path class="st0" d="M132,218.9c1.3,2.1,2.9,3.1,4.8,3.1l7.2-0.1v-10.8l-13.9,0.5C130,214.4,130.6,216.8,132,218.9z"/>
<path class="st0" d="M225.3,208.6l-24.5,0.8c-0.2,0-0.5,0-0.7,0l-1.2,0c-2.1,0.1-4.1,1.1-5.8,3.5l-11.4,16.5l-11-15.9
	c-1.5-2-3.3-3.1-5.3-3l-2.1,0.1l-10.5,0.3c-2,0.1-3.6,1-5,3.3c-1.3,2-2,4.7-2,7.6v30.3c0,2.9,0.6,5.4,2,7.7c1.3,2.1,3.1,3.3,5,3.3
	v-41.9l12.7-0.2l10.8,15.9l-13,18.8v7.9l2.1,0.1c2.1,0.1,3.8-0.9,5.3-3l28.2-40.1l26.3-0.4v12.2l-14.2,0c-2.5,0-4.4,1.2-6.1,3.5
	c-1.6,2.4-2.4,5.2-2.4,8.4l22.7,0.4c2.6,0,4.7-1,6.5-3.4c1.8-2.4,2.8-5.3,2.8-8.4v-12.3c0-3.5-0.8-6.3-2.6-8.7
	C230,209.6,227.8,208.5,225.3,208.6z"/>
<path class="st0" d="M279.9,213c-0.4-7.1-1.5-13.8-2.7-19.7c-1.9-9-5.1-20.3-10.6-31.5c0,0-1.7-3.9-4.9-4.7c-3.7-0.9-7,3.8-7,3.8
	s0,0.2-0.1,0.2c-7.2,8-18.1,21.7-18.1,21.7s-3,2.8-2,8.8c0.1,0.7,0.3,1.2,0.3,1.2s4,15.9,5.6,22.6c0.1,0.2,0.1,0.2,0.1,0.4
	c1.7,6.4,5.8,6.1,5.8,6.1s15.9,1.8,25.2,2.3C281.1,224.4,279.9,213,279.9,213z"/>
<path class="st0" d="M249.5,133.4c-3.4-4.7-7.1-8.7-10.4-11.9c-5.2-5-12.2-10.2-20.9-13.7c0,0-2.8-1.4-5.4,0.4c-3.1,2.2-3.8,8-3.8,8
	s0,0,0,0.2c-2.1,11-5,29.4-5,29.4s-1.2,4.5,2.1,8c0.4,0.6,0.7,0.8,0.7,0.8s9.6,8.6,13.7,12.3c0.1,0,0.1,0.2,0.3,0.1
	c4,3.5,7-0.1,7-0.1s13-11.5,20.3-18.7C255.6,140.8,249.7,133.6,249.5,133.4z"/>
<path class="st0" d="M195.1,101.7c-4.4-0.6-8.6-0.7-12.4-0.3c-5.7,0.5-12.9,2.2-20.7,6.4c0,0-2.7,1.1-3.9,4.4c-1.6,3.9,0,8.4,0,8.4
	s0,0,0,0.2c2.4,9.4,7,24.4,7,24.4s0.8,4.2,4.5,4c0.5-0.1,0.9-0.1,0.9-0.1s10.6-1.3,15.1-1.9c0.1,0,0.1,0,0.2,0
	c4.5-0.7,5.4-5.7,5.4-5.7s5.3-18.2,8-28.9C202,102.1,194.8,101.6,195.1,101.7z"/>
<path class="st0" d="M149.1,125.6c-1.8-9.5-7.4-4.3-7.4-4.3c-3.5,2.9-6.6,6-9.4,9.2c-4.1,4.9-9.1,11.5-13.6,20.4
	c0,0-1.6,2.9-1.5,6.1c0.1,4,2.9,6,2.9,6s0,0.1,0.1,0.1c5.2,4.8,14.1,12.2,14.1,12.2s2.2,2.5,5.1-0.6c0.4-0.3,0.6-0.7,0.6-0.7
	s7.9-9.6,11.1-13.5c0.1,0,0.1-0.2,0.2-0.2c3.2-4,2-8.4,2-8.4S150.8,135,149.1,125.6z"/>
<path class="st0" d="M115.2,173.6c-4.6-5.4-7.2,2.7-7.2,2.7c-1.8,4.9-3.2,9.7-4.3,14.2c-1.6,6.9-3.2,15.9-3.8,26.5c0,0-0.3,3.6,1,6
	c1.5,3,4.4,2.2,4.4,2.2s0,0,0.1,0c5.8-0.5,15.7-2.1,15.7-2.1s2.6,0.1,3.9-4.7c0.2-0.6,0.3-1.1,0.3-1.1s2.9-13.7,4-19.5
	c0.1-0.2,0.1-0.2,0.1-0.3c1.1-5.5-1.3-7.9-1.3-7.9S119.9,179.1,115.2,173.6z"/>
<path class="st0" d="M129.3,265.4c0,0-2.9-13.8-4-19.5c-0.1-0.2-0.1-0.2-0.1-0.3c-1.1-5.4-4-5.3-4-5.3s-10.5-1.8-16.3-2.3
	c-5.6-0.5-4.9,8.3-4.9,8.3c0.3,5.6,0.9,10.6,1.6,15.3c1.1,7.1,3,16,6.4,25.5c0,0,1.1,3.2,3.1,4.2c2.4,1.4,4.6-1.9,4.6-1.9
	s0-0.1,0.1-0.1c4.7-5.6,12.4-15.6,12.4-15.6s2.2-2.1,1.4-7.1C129.4,265.9,129.3,265.4,129.3,265.4z"/>
<path class="st0" d="M151,302.5c0,0-7.8-9.5-11-13.3c-0.1,0-0.1-0.2-0.2-0.2c-3.2-3.6-5.4-1-5.4-1s-9.4,7.8-14.5,12.6
	c-4.9,4.7-1,11.7-1,11.7c2.3,4.6,4.9,8.7,7.2,12.2c3.7,5.5,8.9,11.8,15.6,17.4c0,0,2.2,2.1,4.3,1.2c2.5-1.1,3.2-6.1,3.2-6.1
	s0,0,0-0.2c1.7-9.5,4.2-25.6,4.2-25.6s1-3.9-1.8-8C151.4,302.7,151,302.5,151,302.5z"/>
<path class="st0" d="M198.6,349.6c-2.7-10.6-7.8-27.8-7.8-27.8s-0.8-4.6-4.8-5.4c-0.5-0.1-0.8-0.1-0.8-0.1s-10.7-1.3-15.1-1.9
	c-0.1,0-0.1,0-0.2,0c-4.1-0.5-5,4-5,4s-4.8,15.8-7.2,25c-2.3,9.2,4,12.1,4,12.1c4,2,7.9,3.6,11.5,4.6c5.7,1.8,12.9,2.9,21.3,1.7
	c0,0,2.8-0.1,4.3-3c1.8-3.4-0.1-8.9-0.1-8.9S198.6,349.8,198.6,349.6z"/>
<path class="st0" d="M251.1,323.2c-0.1-4.7-4.3-8.1-4.3-8.1s0-0.2-0.1-0.2c-7.3-7.2-19.5-18.1-19.5-18.1s-2.7-3.2-6.5-0.4
	c-0.5,0.3-0.8,0.6-0.8,0.6s-9.6,8.7-13.5,12.1c-0.1,0-0.1,0.2-0.2,0.1c-3.7,3.5-2.4,8.3-2.4,8.3s3,19.4,5.1,30.2
	c2.2,11.1,9.1,7.7,9.1,7.7c4.6-1.8,8.5-4.1,12.2-6.6c5.6-3.8,12.4-9.7,19-18.8C249.1,330.1,251.4,327.2,251.1,323.2z"/>
<path class="st0" d="M277.6,243.3c-2.5-3.9-7.3-3.1-7.3-3.1s0,0-0.1,0c-9.3,0.4-24.2,2.1-24.2,2.1s-3.8-0.2-5.5,5.4
	c-0.3,0.7-0.4,1.2-0.4,1.2s-4,15.8-5.6,22.4c-0.1,0.2-0.1,0.2-0.1,0.3c-1.4,6.3,1.8,9.5,1.8,9.5s11.4,14.4,18.5,22.3
	c7.2,8,11.3-1.5,11.3-1.5c2.9-5.8,5.1-11.6,6.8-17.2c2.8-8.6,5.4-20,6.3-33.6C279,251.2,279.6,246.5,277.6,243.3z"/>
<path class="st0" d="M220.1,256.6l-5.5-0.2c0,0.5,0.1,1,0.4,1.4c0.2,0.4,0.6,0.5,1,0.6l4.2,0.2v1.9l-4.2-0.2c-0.4,0-0.7,0.1-1,0.5
	c-0.2,0.3-0.4,0.8-0.4,1.4l5.5,0.2v1.9l-4.2-0.2c-0.4,0-0.7,0.1-1,0.5c-0.2,0.3-0.4,0.8-0.4,1.4l5.5,0.3c0.4,0,0.8-0.1,1-0.5
	c0.3-0.3,0.4-0.8,0.4-1.4v-5.7c0-0.7-0.1-1-0.4-1.4C220.8,256.8,220.5,256.6,220.1,256.6z"/>
<path class="st0" d="M222.2,266.2c0.5,0,0.9-0.3,1.1-0.6c0.3-0.3,0.4-0.9,0.4-1.4l-1.5-0.1V266.2z"/>
<path class="st0" d="M230.7,257c-0.4,0-0.8,0.1-1,0.5c-0.3,0.3-0.4,0.9-0.4,1.4l1.2,0v5.8l-4.3-0.2v-5.6v-0.2v0.2l1.7,0.1
	c0.4,0,0.8-0.1,1-0.5c0.3-0.3,0.4-0.9,0.4-1.4l-3.1-0.1c-0.4,0-0.8,0.1-1,0.5c-0.3,0.3-0.4,0.9-0.4,1.4v5.7c0,0.5,0.1,1,0.4,1.4
	c0.3,0.4,0.6,0.6,1,0.6l4.4,0.2c0.4,0,0.8-0.1,1-0.5c0.3-0.3,0.4-0.9,0.4-1.4v-6.2c0-0.5-0.1-0.9-0.4-1.2
	C231.4,257.2,231.1,257,230.7,257z"/>
</svg>
